# xmcd CD database file
#
# Track frame offsets:
#	150
#	19744
#	32965
#	45758
#	56160
#	70409
#	80486
#	101388
#	110887
#	120593
#	129371
#	146431
#	165426
#	180163
#	197297
#	214823
#	233038
#	258751
#	269933
#	283625
#	295539
#	312000
#	324949
#	335390
#
# Disc length: 4657 seconds
#
# Revision: 2
# Processed by: cddbd v1.5.2PL0 Copyright (c) Steve Scherf et al.
# Submitted via: CDex 1.51
#
DISCID=4d122f18
DTITLE=Various Artist - ZM-Xmas-SH-CD-2
DYEAR=1900
DGENRE=Blues
TTITLE0=Wizzard - I Wish It Could Be Christmas Every Day
TTITLE1=Shakin' Stevens - I'll Be Home This Christmas
TTITLE2=Perry Como and The Fontane Sisters - It's Beginning To Look A Lot Like Christmas
TTITLE3=Brenda Lee - Jingle Bell Rock
TTITLE4=Traditional - Jingle Bells
TTITLE5=Traditional - Joy To The World
TTITLE6=Wham - Last Christmas
TTITLE7=Dean Martin -  Let It Snow Let It Snow Let It Snow
TTITLE8=Beach Boys The - Little Saint Nick
TTITLE9=Adam Faith - Lonely Pup (in a christmas shop)
TTITLE10=Mud - Lonely This Christmas
TTITLE11=Boney M - Mary's Boy Child Oh My lord
TTITLE12=Carpenters The - Merry Christmas Darling
TTITLE13=Shakin' Stevens - Merry Christmas Everyone
TTITLE14=Slade - Merry Xmas Everybody
TTITLE15=Cliff Richard - Mistletoe And Wine
TTITLE16=U2 - New Year's Day
TTITLE17=Traditional - O Come All Ye Faithful
TTITLE18=Traditional - O Little Town Of Bethlehem
TTITLE19=Traditional - Once In Royal David's City
TTITLE20=Geraldine McQueen - Once Upon A Christmas Song
TTITLE21=Roy Orbison - Pretty Paper
TTITLE22=Brenda Lee -  Rockin' Around The Christmas Tree
TTITLE23=Chuck Berry - Run Rudolph Run
EXTD=
EXTT0=
EXTT1=
EXTT2=
EXTT3=
EXTT4=
EXTT5=
EXTT6=
EXTT7=
EXTT8=
EXTT9=
EXTT10=
EXTT11=
EXTT12=
EXTT13=
EXTT14=
EXTT15=
EXTT16=
EXTT17=
EXTT18=
EXTT19=
EXTT20=
EXTT21=
EXTT22=
EXTT23=
PLAYORDER=
